HIERARCHY
ROOT Hips
{
 OFFSET 0.000000 0.000000 0.000000
 CHANNELS 6 Xposition Yposition Zposition Yrotation Xrotation Zrotation
 JOINT Chest
 {
  OFFSET 0.000000 10.354800 0.006500
  CHANNELS 3 Yrotation Xrotation Zrotation
  JOINT Chest2
  {
   OFFSET 0.000000 10.435800 -0.013200
   CHANNELS 3 Yrotation Xrotation Zrotation
   JOINT Chest3
   {
    OFFSET 0.000000 10.393700 0.000000
    CHANNELS 3 Yrotation Xrotation Zrotation
    JOINT Chest4
    {
     OFFSET 0.000000 10.383100 0.000000
     CHANNELS 3 Yrotation Xrotation Zrotation
     JOINT Neck
     {
      OFFSET 0.000000 15.694000 0.000000
      CHANNELS 3 Yrotation Xrotation Zrotation
      JOINT Head
      {
       OFFSET 0.000000 9.711000 -0.028000
       CHANNELS 3 Yrotation Xrotation Zrotation
       End Site
       {
        OFFSET 0.000000 18.578700 -0.014800
       }
      }
     }
     JOINT RightCollar
     {
      OFFSET -3.157200 10.367500 0.000000
      CHANNELS 3 Yrotation Xrotation Zrotation
      JOINT RightShoulder
      {
       OFFSET -14.482500 0.000000 0.000000
       CHANNELS 3 Yrotation Xrotation Zrotation
       JOINT RightElbow
       {
        OFFSET 0.000000 -31.707800 0.000000
        CHANNELS 3 Yrotation Xrotation Zrotation
        JOINT RightWrist
        {
         OFFSET 0.000000 -25.659300 0.000000
         CHANNELS 3 Yrotation Xrotation Zrotation
         End Site
         {
          OFFSET 0.000000 -18.994300 0.000000
         }
        }
       }
      }
     }
     JOINT LeftCollar
     {
      OFFSET 3.157200 10.367500 0.000000
      CHANNELS 3 Yrotation Xrotation Zrotation
      JOINT LeftShoulder
      {
       OFFSET 14.482500 0.000000 0.000000
       CHANNELS 3 Yrotation Xrotation Zrotation
       JOINT LeftElbow
       {
        OFFSET 0.000000 -31.707800 0.000000
        CHANNELS 3 Yrotation Xrotation Zrotation
        JOINT LeftWrist
        {
         OFFSET 0.000000 -25.659300 0.000000
         CHANNELS 3 Yrotation Xrotation Zrotation
         End Site
         {
          OFFSET 0.000000 -18.994300 0.000000
         }
        }
       }
      }
     }
    }
   }
  }
 }
 JOINT RightHip
 {
  OFFSET -8.365600 -0.032100 -0.003200
  CHANNELS 3 Yrotation Xrotation Zrotation
  JOINT RightKnee
  {
   OFFSET 0.000000 -43.980000 0.003100
   CHANNELS 3 Yrotation Xrotation Zrotation
   JOINT RightAnkle
   {
    OFFSET 0.000000 -42.882800 0.005200
    CHANNELS 3 Yrotation Xrotation Zrotation
    JOINT RightToe
    {
     OFFSET 0.000000 -4.915500 10.826300
     CHANNELS 3 Yrotation Xrotation Zrotation
     End Site
     {
      OFFSET 0.000000 -1.517500 6.175900
     }
    }
   }
  }
 }
 JOINT LeftHip
 {
  OFFSET 8.365600 -0.032100 -0.003200
  CHANNELS 3 Yrotation Xrotation Zrotation
  JOINT LeftKnee
  {
   OFFSET 0.000000 -43.980000 0.003100
   CHANNELS 3 Yrotation Xrotation Zrotation
   JOINT LeftAnkle
   {
    OFFSET 0.000000 -42.882800 0.005200
    CHANNELS 3 Yrotation Xrotation Zrotation
    JOINT LeftToe
    {
     OFFSET 0.000000 -4.915500 10.826300
     CHANNELS 3 Yrotation Xrotation Zrotation
     End Site
     {
      OFFSET 0.000000 -1.517500 6.175900
     }
    }
   }
  }
 }
}
MOTION
Frames: 6
Frame Time: 0.008333
0.000000 91.618600 0.000000 0.000000 -5.767877 0.000000 0.000000 11.653817 0.000000 0.000000 -5.885947 0.000000 0.000000 -0.000000 0.000000 0.000000 -0.000000 0.000000 0.000000 12.528835 0.000000 0.000000 0.711642 0.000000 0.000000 -0.000000 0.000000 0.000000 0.000000 -90.000000 0.000000 -2.309062 0.000000 0.000000 2.309062 0.000000 0.000000 -0.000000 0.000000 0.000000 -0.000000 90.000000 0.000000 -2.309062 0.000000 0.000000 2.309062 0.000000 0.000000 8.520406 0.000000 0.000000 1.905762 0.000000 -0.000000 -4.658285 0.000000 0.000000 -0.000000 0.000000 0.000000 8.520406 0.000000 0.000000 1.905762 0.000000 -0.000000 -4.658285 0.000000 0.000000 -0.000000 0.000000
7.392874 127.087788 49.426957 170.086425 -31.240763 -2.897365 -3.150737 12.992219 3.755410 -0.298086 1.090930 0.343644 -0.501408 1.843300 0.589330 -2.871070 11.687014 3.393407 -5.182102 21.677387 -1.177668 -5.328944 -2.459014 -0.084269 2.096278 4.128643 -11.437631 -10.749751 -13.474152 -7.490381 -109.784415 -39.868915 137.379707 -31.039899 -27.650934 -39.511263 -0.661298 6.098854 7.535972 18.377549 -0.599316 -1.731718 95.577577 -38.786408 -146.866277 32.250429 -17.382844 45.886788 6.716756 -50.977306 -0.098324 -83.761043 78.686624 -77.053406 5.053724 6.356638 -17.596152 0.003753 0.014266 0.001704 -14.678013 -50.808060 2.505941 102.232545 85.852182 94.492518 -10.509835 -21.421657 -1.483997 0.002420 0.010537 0.001099
7.393822 127.093535 49.425116 170.097103 -31.305681 -2.906666 -3.156613 13.042577 3.762721 -0.299032 1.086912 0.354894 -0.504099 1.861640 0.582434 -2.868199 11.695540 3.397352 -5.133257 21.673916 -1.183957 -5.185082 -2.455319 -0.118640 2.071777 4.122489 -11.408209 -10.706497 -13.480097 -7.498001 -109.648848 -39.831479 137.277725 -31.023638 -27.646907 -39.458420 -0.695589 6.100130 7.539879 18.398759 -0.503703 -1.763675 95.648762 -38.815482 -146.859937 32.237290 -17.355456 45.921995 6.676301 -50.916294 -0.090399 -83.804922 78.683458 -77.072576 5.047661 6.358269 -17.613141 0.008855 0.008225 0.004021 -14.609192 -50.755888 2.426717 102.308005 85.823787 94.600415 -10.497845 -21.442334 -1.493755 0.002934 0.005769 0.001332
7.392185 127.096539 49.428484 170.100567 -31.343247 -2.902308 -3.158649 13.066787 3.763428 -0.301663 1.096976 0.351039 -0.508601 1.870702 0.589100 -2.871305 11.710401 3.399841 -5.019971 21.701684 -1.167953 -5.145030 -2.484516 -0.128275 2.061035 4.107635 -11.386549 -10.674545 -13.490448 -7.494452 -109.500464 -39.782105 137.173362 -31.009277 -27.655222 -39.386380 -0.698066 6.086523 7.531106 18.395462 -0.442812 -1.778300 95.698782 -38.826911 -146.890492 32.220139 -17.326094 45.999212 6.619124 -50.887856 -0.098756 -83.834168 78.708796 -77.103441 5.074624 6.360492 -17.612960 0.003427 0.005743 0.001556 -14.541392 -50.732018 2.352657 102.340469 85.798898 94.661535 -10.514001 -21.461223 -1.501352 0.002910 0.004270 0.001321
7.391094 127.099706 49.432600 170.101697 -31.383250 -2.899240 -3.161982 13.097768 3.765690 -0.301156 1.104309 0.347298 -0.514141 1.883637 0.594371 -2.871665 11.732729 3.407548 -4.992690 21.681266 -1.177094 -5.058554 -2.486853 -0.140227 2.063895 4.077083 -11.396750 -10.659444 -13.494773 -7.417985 -109.403718 -39.796512 137.114280 -31.021499 -27.671980 -39.314200 -0.692899 6.059845 7.515224 18.380403 -0.399078 -1.790275 95.732457 -38.841222 -146.899849 32.233429 -17.267299 46.032029 6.562087 -50.856745 -0.094292 -83.853013 78.730279 -77.128677 5.100375 6.362992 -17.623525 -0.000674 0.004608 -0.000306 -14.479929 -50.703188 2.288140 102.372163 85.782400 94.720344 -10.542189 -21.480693 -1.508327 0.002793 0.004199 0.001268
7.390833 127.101421 49.439862 170.103211 -31.408249 -2.902302 -3.167265 13.120288 3.771169 -0.302767 1.110428 0.348688 -0.512484 1.893410 0.597330 -2.881508 11.762736 3.408722 -4.956742 21.653575 -1.180150 -4.977302 -2.494541 -0.149471 2.065697 4.061972 -11.373775 -10.624507 -13.527919 -7.367286 -109.338800 -39.823244 137.064633 -31.015152 -27.687866 -39.249359 -0.678193 6.019974 7.502498 18.360302 -0.370091 -1.796202 95.647284 -38.888465 -146.763701 32.261081 -17.206456 45.920489 6.518500 -50.840057 -0.081455 -83.871095 78.741151 -77.145153 5.108697 6.362189 -17.627926 0.000748 0.006037 0.000340 -14.454672 -50.684876 2.259897 102.401215 85.769057 94.759482 -10.556790 -21.501616 -1.514239 0.005123 0.006899 0.002326
